<svg width="24" height="21" viewBox="0 0 24 21" fill="none" xmlns="http://www.w3.org/2000/svg">
<path d="M14.75 10.5002C14.75 12.0433 13.5188 13.2943 12 13.2943C10.4812 13.2943 9.25 12.0433 9.25 10.5002C9.25 8.95704 10.4812 7.70605 12 7.70605C13.5188 7.70605 14.75 8.95704 14.75 10.5002Z" stroke="#222222" stroke-width="1.5"/>
<path d="M19.6998 9.54075C19.3422 9.48811 18.9749 9.4481 18.5998 9.42139M5.3998 11.5791C5.02467 11.5525 4.65743 11.5124 4.2998 11.4598" stroke="#222222" stroke-width="1.5" stroke-linecap="round" stroke-linejoin="round"/>
<path d="M12 18.8824C10.5343 19.578 8.60878 20 6.5 20C5.32749 20 4.21166 19.8696 3.2 19.6341C1.54953 19.2499 1 18.2413 1 16.5196V4.48032C1 3.37963 2.14403 2.62364 3.2 2.86938C4.21166 3.10481 5.32749 3.23529 6.5 3.23529C8.60878 3.23529 10.5343 2.81323 12 2.11765C13.4658 1.42207 15.3912 1 17.5 1C18.6725 1 19.7883 1.13049 20.8 1.36592C22.5399 1.77082 23 2.81099 23 4.48032V16.5196C23 17.6204 21.856 18.3764 20.8 18.1306C19.7883 17.8951 18.6725 17.7647 17.5 17.7647C15.3912 17.7647 13.4658 18.1867 12 18.8824Z" stroke="#222222" stroke-width="1.5"/>
</svg>
