<svg width="23" height="23" viewBox="0 0 23 23" fill="none" xmlns="http://www.w3.org/2000/svg">
<path d="M1 12.6665H4.1432C4.52927 12.6665 4.91004 12.7439 5.25534 12.8924L7.93544 14.045C8.28075 14.1935 8.66152 14.2708 9.04759 14.2708H10.416C11.7395 14.2708 12.8125 15.1937 12.8125 16.3321C12.8125 16.3781 12.7771 16.4186 12.7256 16.4312L9.39063 17.2509C8.7924 17.3979 8.15181 17.3466 7.59531 17.1072L4.73027 15.8751M12.8125 15.5831L18.8405 13.9369C19.9092 13.6409 21.0643 13.9918 21.7337 14.8158C22.2177 15.4115 22.0206 16.2647 21.3155 16.6263L11.4513 21.6853C10.8239 22.0071 10.0837 22.0856 9.39364 21.9036L1 19.6896" stroke="white" stroke-width="1.5" stroke-linecap="round" stroke-linejoin="round"/>
<path d="M15.7598 3.89322C15.7598 2.83818 14.2856 1.98291 12.4671 1.98291C10.6486 1.98291 9.17434 2.83818 9.17434 3.89322C9.17434 4.94827 10.0724 5.53061 12.4671 5.53061C14.8618 5.53061 16.0592 6.07641 16.0592 7.44092C16.0592 8.80543 14.451 9.35123 12.4671 9.35123C10.4832 9.35123 8.875 8.49597 8.875 7.44092" stroke="white" stroke-width="1.3" stroke-linecap="round"/>
<path d="M12.7427 1V1.83999M12.7427 10.3332V9.49322" stroke="white" stroke-width="1.3" stroke-linecap="round" stroke-linejoin="round"/>
</svg>
